<svg width="2016.000000" height="252.000000" viewBox="0 0 2016 252" fill="none" xmlns="http://www.w3.org/2000/svg" xmlns:xlink="http://www.w3.org/1999/xlink">
	<desc>
			Created with Pixso.
	</desc>
	<defs/>
	<g opacity="0.300000" style="mix-blend-mode:multiply">
		<rect id="pattern2" width="252.000000" height="252.000000" fill="#FFFFFF" fill-opacity="0"/>
		<rect id="atom" width="40.674759" height="18.444111" transform="translate(19.779297 19.757446) rotate(41.880878)" fill="#FFFFFF" fill-opacity="0"/>
		<path id="Vector" d="M49.03 45.99L20.8 20.67C20.21 20.14 19.27 20.21 18.79 20.86C13.07 28.48 14.63 39.91 22.6 47.06C30.58 54.21 42.11 54.52 49.07 48C49.65 47.45 49.63 46.52 49.03 45.99Z" fill="#FF6633" fill-opacity="1.000000" fill-rule="nonzero"/>
		<rect id="atom" width="40.674767" height="18.444115" transform="translate(224.480469 245.031372) rotate(-138.119064)" fill="#FFFFFF" fill-opacity="0"/>
		<path id="Vector" d="M195.22 218.79L223.45 244.11C224.04 244.64 224.98 244.57 225.46 243.92C231.18 236.3 229.62 224.87 221.65 217.72C213.67 210.56 202.14 210.26 195.18 216.78C194.6 217.33 194.62 218.26 195.22 218.79Z" fill="#FF6633" fill-opacity="1.000000" fill-rule="nonzero"/>
		<rect id="atom" width="40.674782" height="18.444115" transform="translate(196.649414 70.242950) rotate(39.257843)" fill="#FFFFFF" fill-opacity="0"/>
		<path id="Vector" d="M227.07 95.11L197.71 71.11C197.1 70.61 196.16 70.72 195.72 71.38C190.35 79.26 192.43 90.61 200.72 97.39C209.02 104.17 220.55 103.95 227.2 97.12C227.76 96.54 227.69 95.61 227.07 95.11Z" fill="#FF6633" fill-opacity="1.000000" fill-rule="nonzero"/>
		<rect id="atom" width="40.674782" height="18.444120" transform="translate(64.274414 150.698120) rotate(134.771683)" fill="#FFFFFF" fill-opacity="0"/>
		<path id="Vector" d="M36.59 178.59L63.3 151.67C63.86 151.11 63.84 150.17 63.22 149.66C55.89 143.56 44.4 144.53 36.85 152.14C29.31 159.75 28.42 171.25 34.58 178.53C35.1 179.14 36.03 179.16 36.59 178.59Z" fill="#FF6633" fill-opacity="1.000000" fill-rule="nonzero"/>
		<rect id="atom" width="40.674747" height="20.276306" transform="translate(36.701172 75.804932) rotate(83.937752)" fill="#FFFFFF" fill-opacity="0"/>
		<path id="Ellipse 7" d="M30.91 117.32C25.34 117.91 19.87 109.33 18.68 98.16C17.5 87 21.05 77.46 26.62 76.87C32.18 76.28 37.66 84.85 38.84 96.02C40.03 107.19 36.48 116.73 30.91 117.32Z" fill="#FCA21C" fill-opacity="1.000000" fill-rule="nonzero"/>
		<rect id="atom" width="40.674778" height="20.276312" transform="translate(210.785156 178.099243) rotate(-96.062218)" fill="#FFFFFF" fill-opacity="0"/>
		<path id="Ellipse 7" d="M216.57 136.58C222.13 135.99 227.61 144.56 228.8 155.73C229.98 166.9 226.43 176.43 220.86 177.02C215.29 177.62 209.82 169.04 208.63 157.87C207.45 146.7 211 137.17 216.57 136.58Z" fill="#FCA21C" fill-opacity="1.000000" fill-rule="nonzero"/>
		<rect id="atom" width="40.674778" height="16.147881" transform="translate(125.558594 59.221191) rotate(-54.290577)" fill="#FFFFFF" fill-opacity="0"/>
		<path id="Ellipse 7" d="M155.85 30.9C159.47 33.5 157.09 43.01 150.54 52.13C143.98 61.25 135.73 66.53 132.11 63.93C128.49 61.33 130.87 51.82 137.42 42.7C143.98 33.58 152.23 28.3 155.85 30.9Z" fill="#FCA21C" fill-opacity="1.000000" fill-rule="nonzero"/>
		<rect id="atom" width="40.674759" height="16.147877" transform="translate(114.407227 146.333557) rotate(96.214798)" fill="#FFFFFF" fill-opacity="0"/>
		<path id="Ellipse 7" d="M101.97 185.89C97.54 185.41 94.93 175.96 96.15 164.8C97.36 153.63 101.94 144.97 106.38 145.46C110.81 145.94 113.42 155.38 112.2 166.55C110.98 177.71 106.41 186.37 101.97 185.89Z" fill="#FCA21C" fill-opacity="1.000000" fill-rule="nonzero"/>
		<rect id="atom" width="40.674763" height="18.566246" transform="translate(68.222656 77.706451) rotate(17.999704)" fill="#FFFFFF" fill-opacity="0"/>
		<path id="Subtract (Stroke)" d="M104.32 90.62C106.18 93.22 105.58 96.82 102.98 98.67C97.14 102.83 89.27 104.06 81.82 101.64C74.37 99.22 68.74 93.6 66.45 86.8C65.44 83.78 67.07 80.51 70.1 79.5C73.12 78.49 76.39 80.12 77.41 83.15C78.49 86.35 81.29 89.35 85.39 90.68C89.48 92.01 93.51 91.24 96.27 89.27C98.86 87.42 102.47 88.03 104.32 90.62Z" fill="#70C05B" fill-opacity="1.000000" fill-rule="evenodd"/>
		<rect id="atom" width="40.674755" height="18.566275" transform="translate(182.684570 174.519409) rotate(-162.000244)" fill="#FFFFFF" fill-opacity="0"/>
		<path id="Subtract (Stroke)" d="M146.57 161.59C144.72 159 145.32 155.4 147.91 153.55C153.76 149.39 161.63 148.15 169.08 150.57C176.53 152.99 182.16 158.62 184.44 165.42C185.46 168.44 183.83 171.71 180.8 172.72C177.78 173.72 174.5 172.09 173.49 169.07C172.41 165.86 169.6 162.87 165.51 161.54C161.42 160.21 157.39 160.98 154.63 162.94C152.03 164.79 148.43 164.19 146.57 161.59Z" fill="#70C05B" fill-opacity="1.000000" fill-rule="evenodd"/>
		<rect id="atom" width="40.674740" height="18.566246" transform="translate(230.881836 52.838867) rotate(-135.627472)" fill="#FFFFFF" fill-opacity="0"/>
		<path id="Subtract (Stroke)" d="M204.27 25.22C203.76 22.07 205.9 19.11 209.04 18.61C216.13 17.48 223.72 19.86 229.32 25.34C234.92 30.82 237.47 38.36 236.5 45.47C236.06 48.63 233.15 50.83 229.99 50.39C226.84 49.95 224.63 47.03 225.06 43.87C225.52 40.52 224.33 36.59 221.26 33.58C218.18 30.57 214.23 29.47 210.89 30.01C207.74 30.51 204.78 28.37 204.27 25.22Z" fill="#70C05B" fill-opacity="1.000000" fill-rule="evenodd"/>
		<rect id="atom" width="40.674770" height="18.566246" transform="translate(76.963867 219.219391) rotate(8.575407)" fill="#FFFFFF" fill-opacity="0"/>
		<path id="Subtract (Stroke)" d="M114.69 226.05C116.95 228.3 116.95 231.95 114.69 234.2C109.6 239.27 102.05 241.77 94.3 240.61C86.55 239.44 80.07 234.81 76.71 228.48C75.21 225.66 76.29 222.17 79.11 220.68C81.92 219.19 85.42 220.27 86.92 223.08C88.5 226.07 91.77 228.56 96.02 229.2C100.27 229.84 104.13 228.43 106.52 226.04C108.78 223.79 112.44 223.79 114.69 226.05Z" fill="#70C05B" fill-opacity="1.000000" fill-rule="evenodd"/>
		<rect id="atom" width="38.353981" height="18.199821" transform="translate(78.001953 25.900360) rotate(-33.850700)" fill="#FFFFFF" fill-opacity="0"/>
		<path id="Rectangle 6255" d="M80.72 29.95C79.22 27.71 79.81 24.68 82.05 23.17L105.79 7.25C108.03 5.75 111.07 6.35 112.57 8.59L117.27 15.59C118.77 17.83 118.17 20.86 115.93 22.37L92.19 38.29C89.95 39.79 86.92 39.19 85.41 36.95L80.72 29.95Z" fill="#1CB9FC" fill-opacity="1.000000" fill-rule="nonzero"/>
		<rect id="atom" width="38.353954" height="18.199797" transform="translate(133.315430 198.717346) rotate(-12.315752)" fill="#FFFFFF" fill-opacity="0"/>
		<path id="Rectangle 6255" d="M134.35 203.49C133.78 200.85 135.45 198.25 138.08 197.67L166.01 191.57C168.64 191 171.25 192.67 171.82 195.31L173.62 203.54C174.2 206.18 172.53 208.78 169.89 209.36L141.97 215.45C139.33 216.03 136.73 214.36 136.15 211.72L134.35 203.49Z" fill="#1CB9FC" fill-opacity="1.000000" fill-rule="nonzero"/>
		<rect id="atom" width="38.353992" height="18.199825" transform="translate(158.850586 128.393707) rotate(-131.732651)" fill="#FFFFFF" fill-opacity="0"/>
		<path id="Rectangle 6255" d="M162.49 125.14C160.48 126.93 157.39 126.76 155.59 124.74L136.57 103.41C134.77 101.4 134.95 98.31 136.96 96.51L143.25 90.9C145.27 89.11 148.35 89.28 150.15 91.3L169.18 112.63C170.97 114.64 170.8 117.73 168.78 119.53L162.49 125.14Z" fill="#1CB9FC" fill-opacity="1.000000" fill-rule="nonzero"/>
		<rect id="atom" width="38.353916" height="18.199818" transform="translate(34.474609 198.731323) rotate(80.259499)" fill="#FFFFFF" fill-opacity="0"/>
		<path id="Rectangle 6255" d="M29.65 199.55C32.31 199.1 34.84 200.88 35.3 203.54L40.13 231.71C40.59 234.37 38.8 236.9 36.14 237.35L27.84 238.78C25.18 239.24 22.65 237.45 22.19 234.79L17.36 206.62C16.9 203.96 18.69 201.44 21.35 200.98L29.65 199.55Z" fill="#1CB9FC" fill-opacity="1.000000" fill-rule="nonzero"/>
		<rect id="pattern2" width="252.000000" height="252.000000" transform="translate(252.000000 0.000000)" fill="#FFFFFF" fill-opacity="0"/>
		<rect id="atom" width="40.674759" height="18.444111" transform="translate(271.779297 19.757446) rotate(41.880878)" fill="#FFFFFF" fill-opacity="0"/>
		<path id="Vector" d="M301.03 45.99L272.8 20.67C272.21 20.14 271.27 20.21 270.79 20.86C265.07 28.48 266.63 39.91 274.6 47.06C282.58 54.21 294.11 54.52 301.07 48C301.65 47.45 301.63 46.52 301.03 45.99Z" fill="#FF6633" fill-opacity="1.000000" fill-rule="nonzero"/>
		<rect id="atom" width="40.674767" height="18.444115" transform="translate(476.480469 245.031372) rotate(-138.119064)" fill="#FFFFFF" fill-opacity="0"/>
		<path id="Vector" d="M447.22 218.79L475.45 244.11C476.04 244.64 476.98 244.57 477.46 243.92C483.18 236.3 481.62 224.87 473.65 217.72C465.67 210.56 454.14 210.26 447.18 216.78C446.6 217.33 446.62 218.26 447.22 218.79Z" fill="#FF6633" fill-opacity="1.000000" fill-rule="nonzero"/>
		<rect id="atom" width="40.674782" height="18.444115" transform="translate(448.649414 70.242950) rotate(39.257843)" fill="#FFFFFF" fill-opacity="0"/>
		<path id="Vector" d="M479.07 95.11L449.71 71.11C449.1 70.61 448.16 70.72 447.72 71.38C442.35 79.26 444.43 90.61 452.72 97.39C461.02 104.17 472.55 103.95 479.2 97.12C479.76 96.54 479.69 95.61 479.07 95.11Z" fill="#FF6633" fill-opacity="1.000000" fill-rule="nonzero"/>
		<rect id="atom" width="40.674782" height="18.444120" transform="translate(316.274414 150.698120) rotate(134.771683)" fill="#FFFFFF" fill-opacity="0"/>
		<path id="Vector" d="M288.59 178.59L315.3 151.67C315.86 151.11 315.84 150.17 315.22 149.66C307.89 143.56 296.4 144.53 288.85 152.14C281.31 159.75 280.42 171.25 286.58 178.53C287.1 179.14 288.03 179.16 288.59 178.59Z" fill="#FF6633" fill-opacity="1.000000" fill-rule="nonzero"/>
		<rect id="atom" width="40.674747" height="20.276306" transform="translate(288.701172 75.804932) rotate(83.937752)" fill="#FFFFFF" fill-opacity="0"/>
		<path id="Ellipse 7" d="M282.91 117.32C277.34 117.91 271.87 109.33 270.68 98.16C269.5 87 273.05 77.46 278.62 76.87C284.18 76.28 289.66 84.85 290.84 96.02C292.03 107.19 288.48 116.73 282.91 117.32Z" fill="#FCA21C" fill-opacity="1.000000" fill-rule="nonzero"/>
		<rect id="atom" width="40.674778" height="20.276312" transform="translate(462.785156 178.099243) rotate(-96.062218)" fill="#FFFFFF" fill-opacity="0"/>
		<path id="Ellipse 7" d="M468.57 136.58C474.13 135.99 479.61 144.56 480.8 155.73C481.98 166.9 478.43 176.43 472.86 177.02C467.29 177.62 461.82 169.04 460.63 157.87C459.45 146.7 463 137.17 468.57 136.58Z" fill="#FCA21C" fill-opacity="1.000000" fill-rule="nonzero"/>
		<rect id="atom" width="40.674778" height="16.147881" transform="translate(377.558594 59.221191) rotate(-54.290577)" fill="#FFFFFF" fill-opacity="0"/>
		<path id="Ellipse 7" d="M407.85 30.9C411.47 33.5 409.09 43.01 402.54 52.13C395.98 61.25 387.73 66.53 384.11 63.93C380.49 61.33 382.87 51.82 389.42 42.7C395.98 33.58 404.23 28.3 407.85 30.9Z" fill="#FCA21C" fill-opacity="1.000000" fill-rule="nonzero"/>
		<rect id="atom" width="40.674759" height="16.147877" transform="translate(366.407227 146.333557) rotate(96.214798)" fill="#FFFFFF" fill-opacity="0"/>
		<path id="Ellipse 7" d="M353.97 185.89C349.54 185.41 346.93 175.96 348.15 164.8C349.36 153.63 353.94 144.97 358.38 145.46C362.81 145.94 365.42 155.38 364.2 166.55C362.98 177.71 358.41 186.37 353.97 185.89Z" fill="#FCA21C" fill-opacity="1.000000" fill-rule="nonzero"/>
		<rect id="atom" width="40.674763" height="18.566246" transform="translate(320.222656 77.706451) rotate(17.999704)" fill="#FFFFFF" fill-opacity="0"/>
		<path id="Subtract (Stroke)" d="M356.32 90.62C358.18 93.22 357.58 96.82 354.98 98.67C349.14 102.83 341.27 104.06 333.82 101.64C326.37 99.22 320.74 93.6 318.45 86.8C317.44 83.78 319.07 80.51 322.1 79.5C325.12 78.49 328.39 80.12 329.41 83.15C330.49 86.35 333.3 89.35 337.39 90.68C341.48 92.01 345.51 91.24 348.27 89.27C350.86 87.42 354.47 88.03 356.32 90.62Z" fill="#70C05B" fill-opacity="1.000000" fill-rule="evenodd"/>
		<rect id="atom" width="40.674755" height="18.566275" transform="translate(434.684570 174.519409) rotate(-162.000244)" fill="#FFFFFF" fill-opacity="0"/>
		<path id="Subtract (Stroke)" d="M398.57 161.59C396.72 159 397.32 155.4 399.91 153.55C405.76 149.39 413.63 148.15 421.08 150.57C428.53 152.99 434.16 158.62 436.44 165.42C437.46 168.44 435.83 171.71 432.8 172.72C429.78 173.72 426.5 172.09 425.49 169.07C424.41 165.86 421.6 162.87 417.51 161.54C413.42 160.21 409.39 160.98 406.63 162.94C404.04 164.79 400.43 164.19 398.57 161.59Z" fill="#70C05B" fill-opacity="1.000000" fill-rule="evenodd"/>
		<rect id="atom" width="40.674740" height="18.566246" transform="translate(482.881836 52.838867) rotate(-135.627472)" fill="#FFFFFF" fill-opacity="0"/>
		<path id="Subtract (Stroke)" d="M456.27 25.22C455.76 22.07 457.9 19.11 461.04 18.61C468.13 17.48 475.72 19.86 481.32 25.34C486.92 30.82 489.47 38.36 488.5 45.47C488.06 48.63 485.15 50.83 481.99 50.39C478.84 49.95 476.63 47.03 477.06 43.87C477.52 40.52 476.33 36.59 473.26 33.58C470.18 30.57 466.23 29.47 462.89 30.01C459.74 30.51 456.78 28.37 456.27 25.22Z" fill="#70C05B" fill-opacity="1.000000" fill-rule="evenodd"/>
		<rect id="atom" width="40.674770" height="18.566246" transform="translate(328.963867 219.219391) rotate(8.575407)" fill="#FFFFFF" fill-opacity="0"/>
		<path id="Subtract (Stroke)" d="M366.69 226.05C368.95 228.3 368.95 231.95 366.69 234.2C361.6 239.27 354.05 241.77 346.3 240.61C338.55 239.44 332.07 234.81 328.71 228.48C327.21 225.66 328.29 222.17 331.11 220.68C333.93 219.19 337.42 220.27 338.92 223.08C340.51 226.07 343.77 228.56 348.02 229.2C352.27 229.84 356.13 228.43 358.52 226.04C360.78 223.79 364.44 223.79 366.69 226.05Z" fill="#70C05B" fill-opacity="1.000000" fill-rule="evenodd"/>
		<rect id="atom" width="38.353981" height="18.199821" transform="translate(330.001953 25.900360) rotate(-33.850700)" fill="#FFFFFF" fill-opacity="0"/>
		<path id="Rectangle 6255" d="M332.72 29.95C331.22 27.71 331.81 24.68 334.06 23.17L357.79 7.25C360.03 5.75 363.07 6.35 364.57 8.59L369.27 15.59C370.77 17.83 370.17 20.86 367.93 22.37L344.19 38.29C341.95 39.79 338.92 39.19 337.41 36.95L332.72 29.95Z" fill="#1CB9FC" fill-opacity="1.000000" fill-rule="nonzero"/>
		<rect id="atom" width="38.353954" height="18.199797" transform="translate(385.315430 198.717346) rotate(-12.315752)" fill="#FFFFFF" fill-opacity="0"/>
		<path id="Rectangle 6255" d="M386.35 203.49C385.78 200.85 387.45 198.25 390.08 197.67L418.01 191.57C420.64 191 423.25 192.67 423.82 195.31L425.62 203.54C426.2 206.18 424.53 208.78 421.89 209.36L393.97 215.45C391.33 216.03 388.73 214.36 388.15 211.72L386.35 203.49Z" fill="#1CB9FC" fill-opacity="1.000000" fill-rule="nonzero"/>
		<rect id="atom" width="38.353992" height="18.199825" transform="translate(410.850586 128.393707) rotate(-131.732651)" fill="#FFFFFF" fill-opacity="0"/>
		<path id="Rectangle 6255" d="M414.49 125.14C412.48 126.93 409.39 126.76 407.59 124.74L388.57 103.41C386.77 101.4 386.95 98.31 388.96 96.51L395.25 90.9C397.27 89.11 400.35 89.28 402.15 91.3L421.18 112.63C422.97 114.64 422.8 117.73 420.78 119.53L414.49 125.14Z" fill="#1CB9FC" fill-opacity="1.000000" fill-rule="nonzero"/>
		<rect id="atom" width="38.353916" height="18.199818" transform="translate(286.474609 198.731323) rotate(80.259499)" fill="#FFFFFF" fill-opacity="0"/>
		<path id="Rectangle 6255" d="M281.65 199.55C284.31 199.1 286.84 200.88 287.3 203.54L292.13 231.71C292.59 234.37 290.8 236.9 288.14 237.35L279.84 238.78C277.18 239.24 274.65 237.45 274.19 234.79L269.36 206.62C268.9 203.96 270.69 201.44 273.35 200.98L281.65 199.55Z" fill="#1CB9FC" fill-opacity="1.000000" fill-rule="nonzero"/>
		<rect id="pattern2" width="252.000000" height="252.000000" transform="translate(504.000000 0.000000)" fill="#FFFFFF" fill-opacity="0"/>
		<rect id="atom" width="40.674759" height="18.444111" transform="translate(523.779297 19.757446) rotate(41.880878)" fill="#FFFFFF" fill-opacity="0"/>
		<path id="Vector" d="M553.03 45.99L524.8 20.67C524.21 20.14 523.27 20.21 522.79 20.86C517.07 28.48 518.63 39.91 526.6 47.06C534.58 54.21 546.11 54.52 553.07 48C553.65 47.45 553.63 46.52 553.03 45.99Z" fill="#FF6633" fill-opacity="1.000000" fill-rule="nonzero"/>
		<rect id="atom" width="40.674767" height="18.444115" transform="translate(728.480469 245.031372) rotate(-138.119064)" fill="#FFFFFF" fill-opacity="0"/>
		<path id="Vector" d="M699.22 218.79L727.45 244.11C728.04 244.64 728.98 244.57 729.46 243.92C735.18 236.3 733.62 224.87 725.65 217.72C717.67 210.56 706.14 210.26 699.18 216.78C698.6 217.33 698.62 218.26 699.22 218.79Z" fill="#FF6633" fill-opacity="1.000000" fill-rule="nonzero"/>
		<rect id="atom" width="40.674782" height="18.444115" transform="translate(700.649414 70.242950) rotate(39.257843)" fill="#FFFFFF" fill-opacity="0"/>
		<path id="Vector" d="M731.07 95.11L701.71 71.11C701.1 70.61 700.16 70.72 699.72 71.38C694.35 79.26 696.43 90.61 704.72 97.39C713.02 104.17 724.55 103.95 731.2 97.12C731.76 96.54 731.69 95.61 731.07 95.11Z" fill="#FF6633" fill-opacity="1.000000" fill-rule="nonzero"/>
		<rect id="atom" width="40.674782" height="18.444120" transform="translate(568.274414 150.698120) rotate(134.771683)" fill="#FFFFFF" fill-opacity="0"/>
		<path id="Vector" d="M540.59 178.59L567.3 151.67C567.86 151.11 567.84 150.17 567.22 149.66C559.89 143.56 548.4 144.53 540.85 152.14C533.31 159.75 532.42 171.25 538.58 178.53C539.1 179.14 540.03 179.16 540.59 178.59Z" fill="#FF6633" fill-opacity="1.000000" fill-rule="nonzero"/>
		<rect id="atom" width="40.674747" height="20.276306" transform="translate(540.701172 75.804932) rotate(83.937752)" fill="#FFFFFF" fill-opacity="0"/>
		<path id="Ellipse 7" d="M534.91 117.32C529.34 117.91 523.87 109.33 522.68 98.16C521.5 87 525.05 77.46 530.62 76.87C536.18 76.28 541.66 84.85 542.84 96.02C544.03 107.19 540.48 116.73 534.91 117.32Z" fill="#FCA21C" fill-opacity="1.000000" fill-rule="nonzero"/>
		<rect id="atom" width="40.674778" height="20.276312" transform="translate(714.785156 178.099243) rotate(-96.062218)" fill="#FFFFFF" fill-opacity="0"/>
		<path id="Ellipse 7" d="M720.57 136.58C726.13 135.99 731.61 144.56 732.8 155.73C733.98 166.9 730.43 176.43 724.86 177.02C719.29 177.62 713.82 169.04 712.63 157.87C711.45 146.7 715 137.17 720.57 136.58Z" fill="#FCA21C" fill-opacity="1.000000" fill-rule="nonzero"/>
		<rect id="atom" width="40.674778" height="16.147881" transform="translate(629.558594 59.221191) rotate(-54.290577)" fill="#FFFFFF" fill-opacity="0"/>
		<path id="Ellipse 7" d="M659.85 30.9C663.47 33.5 661.09 43.01 654.54 52.13C647.98 61.25 639.73 66.53 636.11 63.93C632.49 61.33 634.87 51.82 641.42 42.7C647.98 33.58 656.23 28.3 659.85 30.9Z" fill="#FCA21C" fill-opacity="1.000000" fill-rule="nonzero"/>
		<rect id="atom" width="40.674759" height="16.147877" transform="translate(618.407227 146.333557) rotate(96.214798)" fill="#FFFFFF" fill-opacity="0"/>
		<path id="Ellipse 7" d="M605.97 185.89C601.54 185.41 598.93 175.96 600.15 164.8C601.36 153.63 605.94 144.97 610.38 145.46C614.81 145.94 617.42 155.38 616.2 166.55C614.98 177.71 610.4 186.37 605.97 185.89Z" fill="#FCA21C" fill-opacity="1.000000" fill-rule="nonzero"/>
		<rect id="atom" width="40.674763" height="18.566246" transform="translate(572.222656 77.706451) rotate(17.999704)" fill="#FFFFFF" fill-opacity="0"/>
		<path id="Subtract (Stroke)" d="M608.32 90.62C610.18 93.22 609.58 96.82 606.98 98.67C601.14 102.83 593.27 104.06 585.82 101.64C578.37 99.22 572.74 93.6 570.45 86.8C569.44 83.78 571.07 80.51 574.1 79.5C577.12 78.49 580.39 80.12 581.41 83.15C582.49 86.35 585.3 89.35 589.39 90.68C593.48 92.01 597.51 91.24 600.27 89.27C602.86 87.42 606.47 88.03 608.32 90.62Z" fill="#70C05B" fill-opacity="1.000000" fill-rule="evenodd"/>
		<rect id="atom" width="40.674755" height="18.566275" transform="translate(686.684570 174.519409) rotate(-162.000244)" fill="#FFFFFF" fill-opacity="0"/>
		<path id="Subtract (Stroke)" d="M650.57 161.59C648.72 159 649.32 155.4 651.91 153.55C657.76 149.39 665.63 148.15 673.08 150.57C680.53 152.99 686.16 158.62 688.44 165.42C689.46 168.44 687.83 171.71 684.8 172.72C681.78 173.72 678.5 172.09 677.49 169.07C676.41 165.86 673.6 162.87 669.51 161.54C665.42 160.21 661.39 160.98 658.63 162.94C656.04 164.79 652.43 164.19 650.57 161.59Z" fill="#70C05B" fill-opacity="1.000000" fill-rule="evenodd"/>
		<rect id="atom" width="40.674740" height="18.566246" transform="translate(734.881836 52.838867) rotate(-135.627472)" fill="#FFFFFF" fill-opacity="0"/>
		<path id="Subtract (Stroke)" d="M708.27 25.22C707.76 22.07 709.9 19.11 713.04 18.61C720.13 17.48 727.72 19.86 733.32 25.34C738.92 30.82 741.47 38.36 740.5 45.47C740.06 48.63 737.15 50.83 733.99 50.39C730.84 49.95 728.63 47.03 729.06 43.87C729.52 40.52 728.33 36.59 725.26 33.58C722.18 30.57 718.23 29.47 714.89 30.01C711.74 30.51 708.78 28.37 708.27 25.22Z" fill="#70C05B" fill-opacity="1.000000" fill-rule="evenodd"/>
		<rect id="atom" width="40.674770" height="18.566246" transform="translate(580.963867 219.219391) rotate(8.575407)" fill="#FFFFFF" fill-opacity="0"/>
		<path id="Subtract (Stroke)" d="M618.69 226.05C620.95 228.3 620.95 231.95 618.69 234.2C613.6 239.27 606.05 241.77 598.3 240.61C590.55 239.44 584.07 234.81 580.71 228.48C579.21 225.66 580.29 222.17 583.11 220.68C585.93 219.19 589.42 220.27 590.92 223.08C592.51 226.07 595.77 228.56 600.02 229.2C604.27 229.84 608.13 228.43 610.52 226.04C612.78 223.79 616.44 223.79 618.69 226.05Z" fill="#70C05B" fill-opacity="1.000000" fill-rule="evenodd"/>
		<rect id="atom" width="38.353981" height="18.199821" transform="translate(582.001953 25.900360) rotate(-33.850700)" fill="#FFFFFF" fill-opacity="0"/>
		<path id="Rectangle 6255" d="M584.72 29.95C583.22 27.71 583.81 24.68 586.06 23.17L609.79 7.25C612.03 5.75 615.07 6.35 616.57 8.59L621.27 15.59C622.77 17.83 622.17 20.86 619.93 22.37L596.19 38.29C593.95 39.79 590.92 39.19 589.41 36.95L584.72 29.95Z" fill="#1CB9FC" fill-opacity="1.000000" fill-rule="nonzero"/>
		<rect id="atom" width="38.353954" height="18.199797" transform="translate(637.315430 198.717346) rotate(-12.315752)" fill="#FFFFFF" fill-opacity="0"/>
		<path id="Rectangle 6255" d="M638.35 203.49C637.78 200.85 639.45 198.25 642.08 197.67L670.01 191.57C672.64 191 675.25 192.67 675.82 195.31L677.62 203.54C678.2 206.18 676.53 208.78 673.89 209.36L645.97 215.45C643.33 216.03 640.73 214.36 640.15 211.72L638.35 203.49Z" fill="#1CB9FC" fill-opacity="1.000000" fill-rule="nonzero"/>
		<rect id="atom" width="38.353992" height="18.199825" transform="translate(662.850586 128.393707) rotate(-131.732651)" fill="#FFFFFF" fill-opacity="0"/>
		<path id="Rectangle 6255" d="M666.49 125.14C664.48 126.93 661.39 126.76 659.59 124.74L640.57 103.41C638.77 101.4 638.95 98.31 640.96 96.51L647.25 90.9C649.27 89.11 652.35 89.28 654.15 91.3L673.18 112.63C674.97 114.64 674.8 117.73 672.78 119.53L666.49 125.14Z" fill="#1CB9FC" fill-opacity="1.000000" fill-rule="nonzero"/>
		<rect id="atom" width="38.353916" height="18.199818" transform="translate(538.474609 198.731323) rotate(80.259499)" fill="#FFFFFF" fill-opacity="0"/>
		<path id="Rectangle 6255" d="M533.65 199.55C536.31 199.1 538.84 200.88 539.3 203.54L544.13 231.71C544.59 234.37 542.8 236.9 540.14 237.35L531.84 238.78C529.18 239.24 526.65 237.45 526.19 234.79L521.36 206.62C520.9 203.96 522.69 201.44 525.35 200.98L533.65 199.55Z" fill="#1CB9FC" fill-opacity="1.000000" fill-rule="nonzero"/>
		<rect id="pattern2" width="252.000000" height="252.000000" transform="translate(756.000000 0.000000)" fill="#FFFFFF" fill-opacity="0"/>
		<rect id="atom" width="40.674759" height="18.444111" transform="translate(775.779297 19.757446) rotate(41.880878)" fill="#FFFFFF" fill-opacity="0"/>
		<path id="Vector" d="M805.03 45.99L776.8 20.67C776.21 20.14 775.27 20.21 774.79 20.86C769.07 28.48 770.63 39.91 778.6 47.06C786.58 54.21 798.11 54.52 805.07 48C805.65 47.45 805.63 46.52 805.03 45.99Z" fill="#FF6633" fill-opacity="1.000000" fill-rule="nonzero"/>
		<rect id="atom" width="40.674767" height="18.444115" transform="translate(980.480469 245.031372) rotate(-138.119064)" fill="#FFFFFF" fill-opacity="0"/>
		<path id="Vector" d="M951.22 218.79L979.45 244.11C980.04 244.64 980.98 244.57 981.46 243.92C987.18 236.3 985.62 224.87 977.65 217.72C969.67 210.56 958.14 210.26 951.18 216.78C950.6 217.33 950.62 218.26 951.22 218.79Z" fill="#FF6633" fill-opacity="1.000000" fill-rule="nonzero"/>
		<rect id="atom" width="40.674782" height="18.444115" transform="translate(952.649414 70.242950) rotate(39.257843)" fill="#FFFFFF" fill-opacity="0"/>
		<path id="Vector" d="M983.07 95.11L953.71 71.11C953.1 70.61 952.16 70.72 951.72 71.38C946.35 79.26 948.43 90.61 956.72 97.39C965.02 104.17 976.55 103.95 983.2 97.12C983.76 96.54 983.69 95.61 983.07 95.11Z" fill="#FF6633" fill-opacity="1.000000" fill-rule="nonzero"/>
		<rect id="atom" width="40.674782" height="18.444120" transform="translate(820.274414 150.698120) rotate(134.771683)" fill="#FFFFFF" fill-opacity="0"/>
		<path id="Vector" d="M792.59 178.59L819.3 151.67C819.86 151.11 819.84 150.17 819.22 149.66C811.89 143.56 800.4 144.53 792.85 152.14C785.31 159.75 784.42 171.25 790.58 178.53C791.1 179.14 792.03 179.16 792.59 178.59Z" fill="#FF6633" fill-opacity="1.000000" fill-rule="nonzero"/>
		<rect id="atom" width="40.674747" height="20.276306" transform="translate(792.701172 75.804932) rotate(83.937752)" fill="#FFFFFF" fill-opacity="0"/>
		<path id="Ellipse 7" d="M786.91 117.32C781.34 117.91 775.87 109.33 774.68 98.16C773.5 87 777.05 77.46 782.62 76.87C788.18 76.28 793.66 84.85 794.84 96.02C796.03 107.19 792.48 116.73 786.91 117.32Z" fill="#FCA21C" fill-opacity="1.000000" fill-rule="nonzero"/>
		<rect id="atom" width="40.674778" height="20.276312" transform="translate(966.785156 178.099243) rotate(-96.062218)" fill="#FFFFFF" fill-opacity="0"/>
		<path id="Ellipse 7" d="M972.57 136.58C978.13 135.99 983.61 144.56 984.8 155.73C985.98 166.9 982.43 176.43 976.86 177.02C971.29 177.62 965.82 169.04 964.63 157.87C963.45 146.7 967 137.17 972.57 136.58Z" fill="#FCA21C" fill-opacity="1.000000" fill-rule="nonzero"/>
		<rect id="atom" width="40.674778" height="16.147881" transform="translate(881.558594 59.221191) rotate(-54.290577)" fill="#FFFFFF" fill-opacity="0"/>
		<path id="Ellipse 7" d="M911.85 30.9C915.47 33.5 913.09 43.01 906.54 52.13C899.98 61.25 891.73 66.53 888.11 63.93C884.49 61.33 886.87 51.82 893.42 42.7C899.98 33.58 908.23 28.3 911.85 30.9Z" fill="#FCA21C" fill-opacity="1.000000" fill-rule="nonzero"/>
		<rect id="atom" width="40.674759" height="16.147877" transform="translate(870.407227 146.333557) rotate(96.214798)" fill="#FFFFFF" fill-opacity="0"/>
		<path id="Ellipse 7" d="M857.97 185.89C853.54 185.41 850.93 175.96 852.15 164.8C853.36 153.63 857.94 144.97 862.38 145.46C866.81 145.94 869.42 155.38 868.2 166.55C866.98 177.71 862.41 186.37 857.97 185.89Z" fill="#FCA21C" fill-opacity="1.000000" fill-rule="nonzero"/>
		<rect id="atom" width="40.674763" height="18.566246" transform="translate(824.222656 77.706451) rotate(17.999704)" fill="#FFFFFF" fill-opacity="0"/>
		<path id="Subtract (Stroke)" d="M860.32 90.62C862.18 93.22 861.58 96.82 858.98 98.67C853.14 102.83 845.27 104.06 837.82 101.64C830.37 99.22 824.74 93.6 822.45 86.8C821.44 83.78 823.07 80.51 826.1 79.5C829.12 78.49 832.39 80.12 833.41 83.15C834.49 86.35 837.3 89.35 841.39 90.68C845.48 92.01 849.51 91.24 852.27 89.27C854.86 87.42 858.47 88.03 860.32 90.62Z" fill="#70C05B" fill-opacity="1.000000" fill-rule="evenodd"/>
		<rect id="atom" width="40.674755" height="18.566275" transform="translate(938.684570 174.519409) rotate(-162.000244)" fill="#FFFFFF" fill-opacity="0"/>
		<path id="Subtract (Stroke)" d="M902.57 161.59C900.72 159 901.32 155.4 903.91 153.55C909.76 149.39 917.63 148.15 925.08 150.57C932.53 152.99 938.16 158.62 940.44 165.42C941.46 168.44 939.83 171.71 936.8 172.72C933.78 173.72 930.5 172.09 929.49 169.07C928.41 165.86 925.6 162.87 921.51 161.54C917.42 160.21 913.39 160.98 910.63 162.94C908.04 164.79 904.43 164.19 902.57 161.59Z" fill="#70C05B" fill-opacity="1.000000" fill-rule="evenodd"/>
		<rect id="atom" width="40.674740" height="18.566246" transform="translate(986.881836 52.838867) rotate(-135.627472)" fill="#FFFFFF" fill-opacity="0"/>
		<path id="Subtract (Stroke)" d="M960.27 25.22C959.76 22.07 961.9 19.11 965.04 18.61C972.13 17.48 979.72 19.86 985.32 25.34C990.92 30.82 993.47 38.36 992.5 45.47C992.06 48.63 989.15 50.83 985.99 50.39C982.84 49.95 980.63 47.03 981.06 43.87C981.52 40.52 980.33 36.59 977.26 33.58C974.18 30.57 970.23 29.47 966.89 30.01C963.74 30.51 960.78 28.37 960.27 25.22Z" fill="#70C05B" fill-opacity="1.000000" fill-rule="evenodd"/>
		<rect id="atom" width="40.674770" height="18.566246" transform="translate(832.963867 219.219391) rotate(8.575407)" fill="#FFFFFF" fill-opacity="0"/>
		<path id="Subtract (Stroke)" d="M870.69 226.05C872.95 228.3 872.95 231.95 870.69 234.2C865.6 239.27 858.05 241.77 850.3 240.61C842.55 239.44 836.07 234.81 832.71 228.48C831.21 225.66 832.29 222.17 835.11 220.68C837.93 219.19 841.42 220.27 842.92 223.08C844.51 226.07 847.77 228.56 852.02 229.2C856.27 229.84 860.13 228.43 862.52 226.04C864.78 223.79 868.44 223.79 870.69 226.05Z" fill="#70C05B" fill-opacity="1.000000" fill-rule="evenodd"/>
		<rect id="atom" width="38.353981" height="18.199821" transform="translate(834.001953 25.900360) rotate(-33.850700)" fill="#FFFFFF" fill-opacity="0"/>
		<path id="Rectangle 6255" d="M836.72 29.95C835.22 27.71 835.81 24.68 838.06 23.17L861.79 7.25C864.03 5.75 867.07 6.35 868.57 8.59L873.27 15.59C874.77 17.83 874.17 20.86 871.93 22.37L848.19 38.29C845.95 39.79 842.92 39.19 841.41 36.95L836.72 29.95Z" fill="#1CB9FC" fill-opacity="1.000000" fill-rule="nonzero"/>
		<rect id="atom" width="38.353954" height="18.199797" transform="translate(889.315430 198.717346) rotate(-12.315752)" fill="#FFFFFF" fill-opacity="0"/>
		<path id="Rectangle 6255" d="M890.35 203.49C889.78 200.85 891.45 198.25 894.08 197.67L922.01 191.57C924.64 191 927.25 192.67 927.82 195.31L929.62 203.54C930.2 206.18 928.53 208.78 925.89 209.36L897.97 215.45C895.33 216.03 892.73 214.36 892.15 211.72L890.35 203.49Z" fill="#1CB9FC" fill-opacity="1.000000" fill-rule="nonzero"/>
		<rect id="atom" width="38.353992" height="18.199825" transform="translate(914.850586 128.393707) rotate(-131.732651)" fill="#FFFFFF" fill-opacity="0"/>
		<path id="Rectangle 6255" d="M918.49 125.14C916.48 126.93 913.39 126.76 911.59 124.74L892.57 103.41C890.77 101.4 890.95 98.31 892.96 96.51L899.25 90.9C901.27 89.11 904.35 89.28 906.15 91.3L925.18 112.63C926.97 114.64 926.8 117.73 924.78 119.53L918.49 125.14Z" fill="#1CB9FC" fill-opacity="1.000000" fill-rule="nonzero"/>
		<rect id="atom" width="38.353916" height="18.199818" transform="translate(790.474609 198.731323) rotate(80.259499)" fill="#FFFFFF" fill-opacity="0"/>
		<path id="Rectangle 6255" d="M785.65 199.55C788.31 199.1 790.84 200.88 791.3 203.54L796.13 231.71C796.59 234.37 794.8 236.9 792.14 237.35L783.84 238.78C781.18 239.24 778.65 237.45 778.19 234.79L773.36 206.62C772.9 203.96 774.69 201.44 777.35 200.98L785.65 199.55Z" fill="#1CB9FC" fill-opacity="1.000000" fill-rule="nonzero"/>
		<rect id="pattern2" width="252.000000" height="252.000000" transform="translate(1008.000000 0.000000)" fill="#FFFFFF" fill-opacity="0"/>
		<rect id="atom" width="40.674759" height="18.444111" transform="translate(1027.779297 19.757446) rotate(41.880878)" fill="#FFFFFF" fill-opacity="0"/>
		<path id="Vector" d="M1057.04 45.99L1028.8 20.67C1028.21 20.14 1027.28 20.21 1026.8 20.86C1021.08 28.48 1022.63 39.91 1030.61 47.06C1038.59 54.21 1050.11 54.52 1057.06 48C1057.66 47.45 1057.63 46.52 1057.04 45.99Z" fill="#FF6633" fill-opacity="1.000000" fill-rule="nonzero"/>
		<rect id="atom" width="40.674767" height="18.444115" transform="translate(1232.480469 245.031372) rotate(-138.119064)" fill="#FFFFFF" fill-opacity="0"/>
		<path id="Vector" d="M1203.22 218.79L1231.46 244.11C1232.05 244.64 1232.98 244.57 1233.46 243.92C1239.18 236.3 1237.63 224.87 1229.65 217.72C1221.67 210.56 1210.15 210.26 1203.18 216.78C1202.6 217.33 1202.63 218.26 1203.22 218.79Z" fill="#FF6633" fill-opacity="1.000000" fill-rule="nonzero"/>
		<rect id="atom" width="40.674782" height="18.444115" transform="translate(1204.649414 70.242950) rotate(39.257843)" fill="#FFFFFF" fill-opacity="0"/>
		<path id="Vector" d="M1235.07 95.11L1205.71 71.11C1205.1 70.61 1204.17 70.72 1203.72 71.38C1198.36 79.26 1200.43 90.61 1208.73 97.39C1217.02 104.17 1228.55 103.95 1235.21 97.12C1235.77 96.54 1235.68 95.61 1235.07 95.11Z" fill="#FF6633" fill-opacity="1.000000" fill-rule="nonzero"/>
		<rect id="atom" width="40.674782" height="18.444120" transform="translate(1072.275391 150.698120) rotate(134.771683)" fill="#FFFFFF" fill-opacity="0"/>
		<path id="Vector" d="M1044.6 178.59L1071.31 151.67C1071.87 151.11 1071.84 150.17 1071.22 149.66C1063.9 143.56 1052.4 144.53 1044.86 152.14C1037.31 159.75 1036.43 171.25 1042.57 178.53C1043.1 179.14 1044.04 179.16 1044.6 178.59Z" fill="#FF6633" fill-opacity="1.000000" fill-rule="nonzero"/>
		<rect id="atom" width="40.674747" height="20.276306" transform="translate(1044.701172 75.804932) rotate(83.937752)" fill="#FFFFFF" fill-opacity="0"/>
		<path id="Ellipse 7" d="M1038.92 117.32C1033.35 117.91 1027.87 109.33 1026.68 98.16C1025.5 87 1029.05 77.46 1034.62 76.87C1040.18 76.28 1045.66 84.85 1046.85 96.02C1048.04 107.19 1044.48 116.73 1038.92 117.32Z" fill="#FCA21C" fill-opacity="1.000000" fill-rule="nonzero"/>
		<rect id="atom" width="40.674778" height="20.276312" transform="translate(1218.785156 178.099243) rotate(-96.062218)" fill="#FFFFFF" fill-opacity="0"/>
		<path id="Ellipse 7" d="M1224.56 136.58C1230.14 135.99 1235.61 144.56 1236.8 155.73C1237.99 166.9 1234.43 176.43 1228.87 177.02C1223.3 177.62 1217.81 169.04 1216.64 157.87C1215.44 146.7 1219 137.17 1224.56 136.58Z" fill="#FCA21C" fill-opacity="1.000000" fill-rule="nonzero"/>
		<rect id="atom" width="40.674778" height="16.147881" transform="translate(1133.558594 59.221191) rotate(-54.290577)" fill="#FFFFFF" fill-opacity="0"/>
		<path id="Ellipse 7" d="M1163.86 30.9C1167.48 33.5 1165.1 43.01 1158.54 52.13C1151.99 61.25 1143.74 66.53 1140.11 63.93C1136.49 61.33 1138.87 51.82 1145.43 42.7C1151.98 33.58 1160.23 28.3 1163.86 30.9Z" fill="#FCA21C" fill-opacity="1.000000" fill-rule="nonzero"/>
		<rect id="atom" width="40.674759" height="16.147877" transform="translate(1122.407227 146.333557) rotate(96.214798)" fill="#FFFFFF" fill-opacity="0"/>
		<path id="Ellipse 7" d="M1109.98 185.89C1105.54 185.41 1102.93 175.96 1104.15 164.8C1105.37 153.63 1109.94 144.97 1114.38 145.46C1118.81 145.94 1121.42 155.38 1120.21 166.55C1118.99 177.71 1114.41 186.37 1109.98 185.89Z" fill="#FCA21C" fill-opacity="1.000000" fill-rule="nonzero"/>
		<rect id="atom" width="40.674763" height="18.566246" transform="translate(1076.222656 77.706451) rotate(17.999704)" fill="#FFFFFF" fill-opacity="0"/>
		<path id="Subtract (Stroke)" d="M1112.32 90.62C1114.18 93.22 1113.57 96.82 1110.99 98.67C1105.14 102.83 1097.28 104.06 1089.82 101.64C1082.38 99.22 1076.74 93.6 1074.46 86.8C1073.44 83.78 1075.07 80.51 1078.1 79.5C1081.13 78.49 1084.4 80.12 1085.41 83.15C1086.49 86.35 1089.3 89.35 1093.39 90.68C1097.48 92.01 1101.51 91.24 1104.27 89.27C1106.87 87.42 1110.47 88.03 1112.32 90.62Z" fill="#70C05B" fill-opacity="1.000000" fill-rule="evenodd"/>
		<rect id="atom" width="40.674755" height="18.566275" transform="translate(1190.684570 174.519409) rotate(-162.000244)" fill="#FFFFFF" fill-opacity="0"/>
		<path id="Subtract (Stroke)" d="M1154.57 161.59C1152.72 159 1153.31 155.4 1155.92 153.55C1161.76 149.39 1169.63 148.15 1177.07 150.57C1184.53 152.99 1190.17 158.62 1192.44 165.42C1193.46 168.44 1191.82 171.71 1188.81 172.72C1185.78 173.72 1182.51 172.09 1181.49 169.07C1180.42 165.86 1177.61 162.87 1173.52 161.54C1169.42 160.21 1165.39 160.98 1162.64 162.94C1160.04 164.79 1156.43 164.19 1154.57 161.59Z" fill="#70C05B" fill-opacity="1.000000" fill-rule="evenodd"/>
		<rect id="atom" width="40.674740" height="18.566246" transform="translate(1238.881836 52.838867) rotate(-135.627472)" fill="#FFFFFF" fill-opacity="0"/>
		<path id="Subtract (Stroke)" d="M1212.27 25.22C1211.76 22.07 1213.9 19.11 1217.05 18.61C1224.13 17.48 1231.73 19.86 1237.32 25.34C1242.93 30.82 1245.48 38.36 1244.5 45.47C1244.06 48.63 1241.16 50.83 1238 50.39C1234.84 49.95 1232.63 47.03 1233.06 43.87C1233.53 40.52 1232.34 36.59 1229.26 33.58C1226.18 30.57 1222.24 29.47 1218.89 30.01C1215.75 30.51 1212.78 28.37 1212.27 25.22Z" fill="#70C05B" fill-opacity="1.000000" fill-rule="evenodd"/>
		<rect id="atom" width="40.674770" height="18.566246" transform="translate(1084.963867 219.219391) rotate(8.575407)" fill="#FFFFFF" fill-opacity="0"/>
		<path id="Subtract (Stroke)" d="M1122.69 226.05C1124.94 228.3 1124.94 231.95 1122.68 234.2C1117.61 239.27 1110.05 241.77 1102.3 240.61C1094.56 239.44 1088.07 234.81 1084.71 228.48C1083.22 225.66 1084.29 222.17 1087.11 220.68C1089.93 219.19 1093.43 220.27 1094.92 223.08C1096.51 226.07 1099.77 228.56 1104.02 229.2C1108.28 229.84 1112.13 228.43 1114.53 226.04C1116.79 223.79 1120.43 223.79 1122.69 226.05Z" fill="#70C05B" fill-opacity="1.000000" fill-rule="evenodd"/>
		<rect id="atom" width="38.353981" height="18.199821" transform="translate(1086.001953 25.900360) rotate(-33.850700)" fill="#FFFFFF" fill-opacity="0"/>
		<path id="Rectangle 6255" d="M1088.72 29.95C1087.22 27.71 1087.81 24.68 1090.06 23.17L1113.8 7.25C1116.04 5.75 1119.06 6.35 1120.57 8.59L1125.27 15.59C1126.77 17.83 1126.18 20.86 1123.93 22.37L1100.19 38.29C1097.96 39.79 1094.92 39.19 1093.42 36.95L1088.72 29.95Z" fill="#1CB9FC" fill-opacity="1.000000" fill-rule="nonzero"/>
		<rect id="atom" width="38.353954" height="18.199797" transform="translate(1141.315430 198.717346) rotate(-12.315752)" fill="#FFFFFF" fill-opacity="0"/>
		<path id="Rectangle 6255" d="M1142.36 203.49C1141.78 200.85 1143.44 198.25 1146.09 197.67L1174.01 191.57C1176.65 191 1179.25 192.67 1179.82 195.31L1181.63 203.54C1182.19 206.18 1180.53 208.78 1177.9 209.36L1149.97 215.45C1147.32 216.03 1144.73 214.36 1144.16 211.72L1142.36 203.49Z" fill="#1CB9FC" fill-opacity="1.000000" fill-rule="nonzero"/>
		<rect id="atom" width="38.353992" height="18.199825" transform="translate(1166.849609 128.393707) rotate(-131.732651)" fill="#FFFFFF" fill-opacity="0"/>
		<path id="Rectangle 6255" d="M1170.5 125.14C1168.48 126.93 1165.39 126.76 1163.6 124.74L1144.56 103.41C1142.78 101.4 1142.94 98.31 1144.96 96.51L1151.25 90.9C1153.27 89.11 1156.36 89.28 1158.15 91.3L1177.18 112.63C1178.98 114.64 1178.8 117.73 1176.79 119.53L1170.5 125.14Z" fill="#1CB9FC" fill-opacity="1.000000" fill-rule="nonzero"/>
		<rect id="atom" width="38.353916" height="18.199818" transform="translate(1042.474609 198.731323) rotate(80.259499)" fill="#FFFFFF" fill-opacity="0"/>
		<path id="Rectangle 6255" d="M1037.66 199.55C1040.31 199.1 1042.84 200.88 1043.3 203.54L1048.14 231.71C1048.59 234.37 1046.81 236.9 1044.15 237.35L1035.84 238.78C1033.18 239.24 1030.66 237.45 1030.19 234.79L1025.36 206.62C1024.91 203.96 1026.68 201.44 1029.35 200.98L1037.66 199.55Z" fill="#1CB9FC" fill-opacity="1.000000" fill-rule="nonzero"/>
		<rect id="pattern2" width="252.000000" height="252.000000" transform="translate(1260.000000 0.000000)" fill="#FFFFFF" fill-opacity="0"/>
		<rect id="atom" width="40.674759" height="18.444111" transform="translate(1279.779297 19.757446) rotate(41.880878)" fill="#FFFFFF" fill-opacity="0"/>
		<path id="Vector" d="M1309.04 45.99L1280.8 20.67C1280.21 20.14 1279.28 20.21 1278.8 20.86C1273.07 28.48 1274.63 39.91 1282.61 47.06C1290.59 54.21 1302.11 54.52 1309.06 48C1309.66 47.45 1309.63 46.52 1309.04 45.99Z" fill="#FF6633" fill-opacity="1.000000" fill-rule="nonzero"/>
		<rect id="atom" width="40.674767" height="18.444115" transform="translate(1484.480469 245.031372) rotate(-138.119064)" fill="#FFFFFF" fill-opacity="0"/>
		<path id="Vector" d="M1455.22 218.79L1483.46 244.11C1484.05 244.64 1484.98 244.57 1485.46 243.92C1491.18 236.3 1489.63 224.87 1481.65 217.72C1473.67 210.56 1462.15 210.26 1455.19 216.78C1454.6 217.33 1454.63 218.26 1455.22 218.79Z" fill="#FF6633" fill-opacity="1.000000" fill-rule="nonzero"/>
		<rect id="atom" width="40.674782" height="18.444115" transform="translate(1456.649414 70.242950) rotate(39.257843)" fill="#FFFFFF" fill-opacity="0"/>
		<path id="Vector" d="M1487.08 95.11L1457.71 71.11C1457.1 70.61 1456.17 70.72 1455.72 71.38C1450.36 79.26 1452.43 90.61 1460.73 97.39C1469.02 104.17 1480.55 103.95 1487.21 97.12C1487.77 96.54 1487.69 95.61 1487.08 95.11Z" fill="#FF6633" fill-opacity="1.000000" fill-rule="nonzero"/>
		<rect id="atom" width="40.674782" height="18.444120" transform="translate(1324.275391 150.698120) rotate(134.771683)" fill="#FFFFFF" fill-opacity="0"/>
		<path id="Vector" d="M1296.6 178.59L1323.31 151.67C1323.87 151.11 1323.84 150.17 1323.22 149.66C1315.9 143.56 1304.4 144.53 1296.86 152.14C1289.31 159.75 1288.43 171.25 1294.57 178.53C1295.1 179.14 1296.04 179.16 1296.6 178.59Z" fill="#FF6633" fill-opacity="1.000000" fill-rule="nonzero"/>
		<rect id="atom" width="40.674747" height="20.276306" transform="translate(1296.701172 75.804932) rotate(83.937752)" fill="#FFFFFF" fill-opacity="0"/>
		<path id="Ellipse 7" d="M1290.92 117.32C1285.35 117.91 1279.87 109.33 1278.68 98.16C1277.5 87 1281.05 77.46 1286.62 76.87C1292.18 76.28 1297.66 84.85 1298.85 96.02C1300.04 107.19 1296.48 116.73 1290.92 117.32Z" fill="#FCA21C" fill-opacity="1.000000" fill-rule="nonzero"/>
		<rect id="atom" width="40.674778" height="20.276312" transform="translate(1470.785156 178.099243) rotate(-96.062218)" fill="#FFFFFF" fill-opacity="0"/>
		<path id="Ellipse 7" d="M1476.57 136.58C1482.14 135.99 1487.61 144.56 1488.8 155.73C1489.99 166.9 1486.43 176.43 1480.87 177.02C1475.3 177.62 1469.82 169.04 1468.64 157.87C1467.45 146.7 1471 137.17 1476.57 136.58Z" fill="#FCA21C" fill-opacity="1.000000" fill-rule="nonzero"/>
		<rect id="atom" width="40.674778" height="16.147881" transform="translate(1385.558594 59.221191) rotate(-54.290577)" fill="#FFFFFF" fill-opacity="0"/>
		<path id="Ellipse 7" d="M1415.86 30.9C1419.48 33.5 1417.1 43.01 1410.54 52.13C1403.99 61.25 1395.74 66.53 1392.11 63.93C1388.49 61.33 1390.87 51.82 1397.43 42.7C1403.98 33.58 1412.23 28.3 1415.86 30.9Z" fill="#FCA21C" fill-opacity="1.000000" fill-rule="nonzero"/>
		<rect id="atom" width="40.674759" height="16.147877" transform="translate(1374.407227 146.333557) rotate(96.214798)" fill="#FFFFFF" fill-opacity="0"/>
		<path id="Ellipse 7" d="M1361.98 185.89C1357.54 185.41 1354.94 175.96 1356.15 164.8C1357.37 153.63 1361.95 144.97 1366.38 145.46C1370.81 145.94 1373.42 155.38 1372.21 166.55C1370.99 177.71 1366.41 186.37 1361.98 185.89Z" fill="#FCA21C" fill-opacity="1.000000" fill-rule="nonzero"/>
		<rect id="atom" width="40.674763" height="18.566246" transform="translate(1328.222656 77.706451) rotate(17.999704)" fill="#FFFFFF" fill-opacity="0"/>
		<path id="Subtract (Stroke)" d="M1364.33 90.62C1366.18 93.22 1365.58 96.82 1362.99 98.67C1357.14 102.83 1349.28 104.06 1341.83 101.64C1334.38 99.22 1328.74 93.6 1326.46 86.8C1325.45 83.78 1327.08 80.51 1330.1 79.5C1333.13 78.49 1336.4 80.12 1337.41 83.15C1338.49 86.35 1341.3 89.35 1345.39 90.68C1349.48 92.01 1353.51 91.24 1356.27 89.27C1358.87 87.42 1362.47 88.03 1364.33 90.62Z" fill="#70C05B" fill-opacity="1.000000" fill-rule="evenodd"/>
		<rect id="atom" width="40.674755" height="18.566275" transform="translate(1442.684570 174.519409) rotate(-162.000244)" fill="#FFFFFF" fill-opacity="0"/>
		<path id="Subtract (Stroke)" d="M1406.58 161.59C1404.72 159 1405.32 155.4 1407.92 153.55C1413.76 149.39 1421.63 148.15 1429.08 150.57C1436.53 152.99 1442.17 158.62 1444.45 165.42C1445.46 168.44 1443.83 171.71 1440.81 172.72C1437.78 173.72 1434.51 172.09 1433.49 169.07C1432.42 165.86 1429.61 162.87 1425.52 161.54C1421.42 160.21 1417.39 160.98 1414.64 162.94C1412.04 164.79 1408.43 164.19 1406.58 161.59Z" fill="#70C05B" fill-opacity="1.000000" fill-rule="evenodd"/>
		<rect id="atom" width="40.674740" height="18.566246" transform="translate(1490.881836 52.838867) rotate(-135.627472)" fill="#FFFFFF" fill-opacity="0"/>
		<path id="Subtract (Stroke)" d="M1464.27 25.22C1463.76 22.07 1465.9 19.11 1469.05 18.61C1476.13 17.48 1483.73 19.86 1489.33 25.34C1494.93 30.82 1497.48 38.36 1496.5 45.47C1496.07 48.63 1493.16 50.83 1490 50.39C1486.84 49.95 1484.63 47.03 1485.07 43.87C1485.53 40.52 1484.34 36.59 1481.26 33.58C1478.19 30.57 1474.24 29.47 1470.89 30.01C1467.75 30.51 1464.78 28.37 1464.27 25.22Z" fill="#70C05B" fill-opacity="1.000000" fill-rule="evenodd"/>
		<rect id="atom" width="40.674770" height="18.566246" transform="translate(1336.963867 219.219391) rotate(8.575407)" fill="#FFFFFF" fill-opacity="0"/>
		<path id="Subtract (Stroke)" d="M1374.7 226.05C1376.95 228.3 1376.95 231.95 1374.69 234.2C1369.61 239.27 1362.05 241.77 1354.3 240.61C1346.56 239.44 1340.08 234.81 1336.71 228.48C1335.22 225.66 1336.29 222.17 1339.11 220.68C1341.93 219.19 1345.43 220.27 1346.92 223.08C1348.51 226.07 1351.77 228.56 1356.02 229.2C1360.28 229.84 1364.13 228.43 1366.53 226.04C1368.79 223.79 1372.44 223.79 1374.7 226.05Z" fill="#70C05B" fill-opacity="1.000000" fill-rule="evenodd"/>
		<rect id="atom" width="38.353981" height="18.199821" transform="translate(1338.001953 25.900360) rotate(-33.850700)" fill="#FFFFFF" fill-opacity="0"/>
		<path id="Rectangle 6255" d="M1340.72 29.95C1339.22 27.71 1339.82 24.68 1342.06 23.17L1365.8 7.25C1368.04 5.75 1371.07 6.35 1372.58 8.59L1377.27 15.59C1378.77 17.83 1378.18 20.86 1375.93 22.37L1352.2 38.29C1349.96 39.79 1346.92 39.19 1345.42 36.95L1340.72 29.95Z" fill="#1CB9FC" fill-opacity="1.000000" fill-rule="nonzero"/>
		<rect id="atom" width="38.353954" height="18.199797" transform="translate(1393.315430 198.717346) rotate(-12.315752)" fill="#FFFFFF" fill-opacity="0"/>
		<path id="Rectangle 6255" d="M1394.36 203.49C1393.78 200.85 1395.45 198.25 1398.09 197.67L1426.01 191.57C1428.65 191 1431.25 192.67 1431.83 195.31L1433.63 203.54C1434.2 206.18 1432.53 208.78 1429.9 209.36L1401.97 215.45C1399.33 216.03 1396.73 214.36 1396.16 211.72L1394.36 203.49Z" fill="#1CB9FC" fill-opacity="1.000000" fill-rule="nonzero"/>
		<rect id="atom" width="38.353992" height="18.199825" transform="translate(1418.849609 128.393707) rotate(-131.732651)" fill="#FFFFFF" fill-opacity="0"/>
		<path id="Rectangle 6255" d="M1422.5 125.14C1420.48 126.93 1417.39 126.76 1415.6 124.74L1396.57 103.41C1394.78 101.4 1394.95 98.31 1396.96 96.51L1403.25 90.9C1405.27 89.11 1408.36 89.28 1410.15 91.3L1429.18 112.63C1430.98 114.64 1430.8 117.73 1428.79 119.53L1422.5 125.14Z" fill="#1CB9FC" fill-opacity="1.000000" fill-rule="nonzero"/>
		<rect id="atom" width="38.353916" height="18.199818" transform="translate(1294.474609 198.731323) rotate(80.259499)" fill="#FFFFFF" fill-opacity="0"/>
		<path id="Rectangle 6255" d="M1289.66 199.55C1292.31 199.1 1294.84 200.88 1295.3 203.54L1300.14 231.71C1300.59 234.37 1298.81 236.9 1296.15 237.35L1287.84 238.78C1285.18 239.24 1282.66 237.45 1282.19 234.79L1277.36 206.62C1276.91 203.96 1278.68 201.44 1281.35 200.98L1289.66 199.55Z" fill="#1CB9FC" fill-opacity="1.000000" fill-rule="nonzero"/>
		<rect id="pattern2" width="252.000000" height="252.000000" transform="translate(1512.000000 0.000000)" fill="#FFFFFF" fill-opacity="0"/>
		<rect id="atom" width="40.674759" height="18.444111" transform="translate(1531.779297 19.757446) rotate(41.880878)" fill="#FFFFFF" fill-opacity="0"/>
		<path id="Vector" d="M1561.04 45.99L1532.8 20.67C1532.21 20.14 1531.28 20.21 1530.8 20.86C1525.08 28.48 1526.63 39.91 1534.61 47.06C1542.59 54.21 1554.11 54.52 1561.07 48C1561.66 47.45 1561.63 46.52 1561.04 45.99Z" fill="#FF6633" fill-opacity="1.000000" fill-rule="nonzero"/>
		<rect id="atom" width="40.674767" height="18.444115" transform="translate(1736.480469 245.031372) rotate(-138.119064)" fill="#FFFFFF" fill-opacity="0"/>
		<path id="Vector" d="M1707.22 218.79L1735.46 244.11C1736.05 244.64 1736.98 244.57 1737.46 243.92C1743.18 236.3 1741.63 224.87 1733.65 217.72C1725.67 210.56 1714.15 210.26 1707.19 216.78C1706.6 217.33 1706.63 218.26 1707.22 218.79Z" fill="#FF6633" fill-opacity="1.000000" fill-rule="nonzero"/>
		<rect id="atom" width="40.674782" height="18.444115" transform="translate(1708.649414 70.242950) rotate(39.257843)" fill="#FFFFFF" fill-opacity="0"/>
		<path id="Vector" d="M1739.08 95.11L1709.71 71.11C1709.1 70.61 1708.17 70.72 1707.72 71.38C1702.36 79.26 1704.43 90.61 1712.73 97.39C1721.02 104.17 1732.55 103.95 1739.21 97.12C1739.77 96.54 1739.69 95.61 1739.08 95.11Z" fill="#FF6633" fill-opacity="1.000000" fill-rule="nonzero"/>
		<rect id="atom" width="40.674782" height="18.444120" transform="translate(1576.275391 150.698120) rotate(134.771683)" fill="#FFFFFF" fill-opacity="0"/>
		<path id="Vector" d="M1548.6 178.59L1575.31 151.67C1575.87 151.11 1575.84 150.17 1575.22 149.66C1567.9 143.56 1556.4 144.53 1548.86 152.14C1541.31 159.75 1540.43 171.25 1546.58 178.53C1547.1 179.14 1548.04 179.16 1548.6 178.59Z" fill="#FF6633" fill-opacity="1.000000" fill-rule="nonzero"/>
		<rect id="atom" width="40.674747" height="20.276306" transform="translate(1548.701172 75.804932) rotate(83.937752)" fill="#FFFFFF" fill-opacity="0"/>
		<path id="Ellipse 7" d="M1542.92 117.32C1537.35 117.91 1531.87 109.33 1530.69 98.16C1529.5 87 1533.05 77.46 1538.62 76.87C1544.19 76.28 1549.66 84.85 1550.85 96.02C1552.04 107.19 1548.48 116.73 1542.92 117.32Z" fill="#FCA21C" fill-opacity="1.000000" fill-rule="nonzero"/>
		<rect id="atom" width="40.674778" height="20.276312" transform="translate(1722.785156 178.099243) rotate(-96.062218)" fill="#FFFFFF" fill-opacity="0"/>
		<path id="Ellipse 7" d="M1728.57 136.58C1734.14 135.99 1739.61 144.56 1740.8 155.73C1741.99 166.9 1738.43 176.43 1732.87 177.02C1727.3 177.62 1721.82 169.04 1720.64 157.87C1719.45 146.7 1723 137.17 1728.57 136.58Z" fill="#FCA21C" fill-opacity="1.000000" fill-rule="nonzero"/>
		<rect id="atom" width="40.674778" height="16.147881" transform="translate(1637.558594 59.221191) rotate(-54.290577)" fill="#FFFFFF" fill-opacity="0"/>
		<path id="Ellipse 7" d="M1667.86 30.9C1671.48 33.5 1669.1 43.01 1662.54 52.13C1655.99 61.25 1647.74 66.53 1644.11 63.93C1640.49 61.33 1642.87 51.82 1649.43 42.7C1655.98 33.58 1664.23 28.3 1667.86 30.9Z" fill="#FCA21C" fill-opacity="1.000000" fill-rule="nonzero"/>
		<rect id="atom" width="40.674759" height="16.147877" transform="translate(1626.407227 146.333557) rotate(96.214798)" fill="#FFFFFF" fill-opacity="0"/>
		<path id="Ellipse 7" d="M1613.98 185.89C1609.54 185.41 1606.94 175.96 1608.15 164.8C1609.37 153.63 1613.95 144.97 1618.38 145.46C1622.81 145.94 1625.42 155.38 1624.21 166.55C1622.99 177.71 1618.41 186.37 1613.98 185.89Z" fill="#FCA21C" fill-opacity="1.000000" fill-rule="nonzero"/>
		<rect id="atom" width="40.674763" height="18.566246" transform="translate(1580.222656 77.706451) rotate(17.999704)" fill="#FFFFFF" fill-opacity="0"/>
		<path id="Subtract (Stroke)" d="M1616.33 90.62C1618.18 93.22 1617.58 96.82 1614.99 98.67C1609.14 102.83 1601.28 104.06 1593.83 101.64C1586.38 99.22 1580.74 93.6 1578.46 86.8C1577.45 83.78 1579.08 80.51 1582.1 79.5C1585.13 78.49 1588.4 80.12 1589.41 83.15C1590.49 86.35 1593.3 89.35 1597.39 90.68C1601.48 92.01 1605.51 91.24 1608.27 89.27C1610.87 87.42 1614.47 88.03 1616.33 90.62Z" fill="#70C05B" fill-opacity="1.000000" fill-rule="evenodd"/>
		<rect id="atom" width="40.674755" height="18.566275" transform="translate(1694.684570 174.519409) rotate(-162.000244)" fill="#FFFFFF" fill-opacity="0"/>
		<path id="Subtract (Stroke)" d="M1658.58 161.59C1656.72 159 1657.32 155.4 1659.92 153.55C1665.76 149.39 1673.63 148.15 1681.08 150.57C1688.53 152.99 1694.17 158.62 1696.45 165.42C1697.46 168.44 1695.83 171.71 1692.81 172.72C1689.78 173.72 1686.51 172.09 1685.49 169.07C1684.42 165.86 1681.61 162.87 1677.52 161.54C1673.42 160.21 1669.39 160.98 1666.64 162.94C1664.04 164.79 1660.43 164.19 1658.58 161.59Z" fill="#70C05B" fill-opacity="1.000000" fill-rule="evenodd"/>
		<rect id="atom" width="40.674740" height="18.566246" transform="translate(1742.881836 52.838867) rotate(-135.627472)" fill="#FFFFFF" fill-opacity="0"/>
		<path id="Subtract (Stroke)" d="M1716.27 25.22C1715.76 22.07 1717.9 19.11 1721.05 18.61C1728.13 17.48 1735.73 19.86 1741.33 25.34C1746.93 30.82 1749.48 38.36 1748.5 45.47C1748.07 48.63 1745.16 50.83 1742 50.39C1738.84 49.95 1736.63 47.03 1737.07 43.87C1737.53 40.52 1736.34 36.59 1733.26 33.58C1730.19 30.57 1726.24 29.47 1722.89 30.01C1719.75 30.51 1716.78 28.37 1716.27 25.22Z" fill="#70C05B" fill-opacity="1.000000" fill-rule="evenodd"/>
		<rect id="atom" width="40.674770" height="18.566246" transform="translate(1588.963867 219.219391) rotate(8.575407)" fill="#FFFFFF" fill-opacity="0"/>
		<path id="Subtract (Stroke)" d="M1626.7 226.05C1628.95 228.3 1628.95 231.95 1626.69 234.2C1621.61 239.27 1614.05 241.77 1606.3 240.61C1598.56 239.44 1592.08 234.81 1588.71 228.48C1587.22 225.66 1588.29 222.17 1591.11 220.68C1593.93 219.19 1597.43 220.27 1598.92 223.08C1600.51 226.07 1603.77 228.56 1608.02 229.2C1612.28 229.84 1616.13 228.43 1618.53 226.04C1620.79 223.79 1624.44 223.79 1626.7 226.05Z" fill="#70C05B" fill-opacity="1.000000" fill-rule="evenodd"/>
		<rect id="atom" width="38.353981" height="18.199821" transform="translate(1590.001953 25.900360) rotate(-33.850700)" fill="#FFFFFF" fill-opacity="0"/>
		<path id="Rectangle 6255" d="M1592.72 29.95C1591.22 27.71 1591.82 24.68 1594.06 23.17L1617.8 7.25C1620.04 5.75 1623.07 6.35 1624.58 8.59L1629.27 15.59C1630.77 17.83 1630.18 20.86 1627.93 22.37L1604.2 38.29C1601.96 39.79 1598.92 39.19 1597.42 36.95L1592.72 29.95Z" fill="#1CB9FC" fill-opacity="1.000000" fill-rule="nonzero"/>
		<rect id="atom" width="38.353954" height="18.199797" transform="translate(1645.315430 198.717346) rotate(-12.315752)" fill="#FFFFFF" fill-opacity="0"/>
		<path id="Rectangle 6255" d="M1646.36 203.49C1645.78 200.85 1647.45 198.25 1650.09 197.67L1678.01 191.57C1680.65 191 1683.25 192.67 1683.83 195.31L1685.63 203.54C1686.2 206.18 1684.53 208.78 1681.9 209.36L1653.97 215.45C1651.33 216.03 1648.73 214.36 1648.16 211.72L1646.36 203.49Z" fill="#1CB9FC" fill-opacity="1.000000" fill-rule="nonzero"/>
		<rect id="atom" width="38.353992" height="18.199825" transform="translate(1670.849609 128.393707) rotate(-131.732651)" fill="#FFFFFF" fill-opacity="0"/>
		<path id="Rectangle 6255" d="M1674.5 125.14C1672.48 126.93 1669.39 126.76 1667.6 124.74L1648.57 103.41C1646.78 101.4 1646.95 98.31 1648.96 96.51L1655.25 90.9C1657.27 89.11 1660.36 89.28 1662.15 91.3L1681.18 112.63C1682.98 114.64 1682.8 117.73 1680.79 119.53L1674.5 125.14Z" fill="#1CB9FC" fill-opacity="1.000000" fill-rule="nonzero"/>
		<rect id="atom" width="38.353916" height="18.199818" transform="translate(1546.474609 198.731323) rotate(80.259499)" fill="#FFFFFF" fill-opacity="0"/>
		<path id="Rectangle 6255" d="M1541.66 199.55C1544.32 199.1 1546.84 200.88 1547.3 203.54L1552.14 231.71C1552.59 234.37 1550.81 236.9 1548.15 237.35L1539.84 238.78C1537.18 239.24 1534.66 237.45 1534.2 234.79L1529.36 206.62C1528.91 203.96 1530.69 201.44 1533.35 200.98L1541.66 199.55Z" fill="#1CB9FC" fill-opacity="1.000000" fill-rule="nonzero"/>
		<rect id="pattern2" width="252.000000" height="252.000000" transform="translate(1764.000000 0.000000)" fill="#FFFFFF" fill-opacity="0"/>
		<rect id="atom" width="40.674759" height="18.444111" transform="translate(1783.779297 19.757446) rotate(41.880878)" fill="#FFFFFF" fill-opacity="0"/>
		<path id="Vector" d="M1813.04 45.99L1784.8 20.67C1784.21 20.14 1783.28 20.21 1782.8 20.86C1777.08 28.48 1778.63 39.91 1786.61 47.06C1794.59 54.21 1806.11 54.52 1813.07 48C1813.66 47.45 1813.63 46.52 1813.04 45.99Z" fill="#FF6633" fill-opacity="1.000000" fill-rule="nonzero"/>
		<rect id="atom" width="40.674767" height="18.444115" transform="translate(1988.480469 245.031372) rotate(-138.119064)" fill="#FFFFFF" fill-opacity="0"/>
		<path id="Vector" d="M1959.22 218.79L1987.46 244.11C1988.05 244.64 1988.98 244.57 1989.46 243.92C1995.18 236.3 1993.63 224.87 1985.65 217.72C1977.67 210.56 1966.15 210.26 1959.19 216.78C1958.6 217.33 1958.63 218.26 1959.22 218.79Z" fill="#FF6633" fill-opacity="1.000000" fill-rule="nonzero"/>
		<rect id="atom" width="40.674782" height="18.444115" transform="translate(1960.649414 70.242950) rotate(39.257843)" fill="#FFFFFF" fill-opacity="0"/>
		<path id="Vector" d="M1991.08 95.11L1961.71 71.11C1961.1 70.61 1960.17 70.72 1959.72 71.38C1954.36 79.26 1956.43 90.61 1964.73 97.39C1973.02 104.17 1984.55 103.95 1991.21 97.12C1991.77 96.54 1991.69 95.61 1991.08 95.11Z" fill="#FF6633" fill-opacity="1.000000" fill-rule="nonzero"/>
		<rect id="atom" width="40.674782" height="18.444120" transform="translate(1828.275391 150.698120) rotate(134.771683)" fill="#FFFFFF" fill-opacity="0"/>
		<path id="Vector" d="M1800.6 178.59L1827.31 151.67C1827.87 151.11 1827.84 150.17 1827.22 149.66C1819.9 143.56 1808.4 144.53 1800.86 152.14C1793.31 159.75 1792.43 171.25 1798.58 178.53C1799.1 179.14 1800.04 179.16 1800.6 178.59Z" fill="#FF6633" fill-opacity="1.000000" fill-rule="nonzero"/>
		<rect id="atom" width="40.674747" height="20.276306" transform="translate(1800.701172 75.804932) rotate(83.937752)" fill="#FFFFFF" fill-opacity="0"/>
		<path id="Ellipse 7" d="M1794.92 117.32C1789.35 117.91 1783.87 109.33 1782.69 98.16C1781.5 87 1785.05 77.46 1790.62 76.87C1796.19 76.28 1801.66 84.85 1802.85 96.02C1804.04 107.19 1800.48 116.73 1794.92 117.32Z" fill="#FCA21C" fill-opacity="1.000000" fill-rule="nonzero"/>
		<rect id="atom" width="40.674778" height="20.276312" transform="translate(1974.785156 178.099243) rotate(-96.062218)" fill="#FFFFFF" fill-opacity="0"/>
		<path id="Ellipse 7" d="M1980.57 136.58C1986.14 135.99 1991.61 144.56 1992.8 155.73C1993.99 166.9 1990.43 176.43 1984.87 177.02C1979.3 177.62 1973.82 169.04 1972.64 157.87C1971.45 146.7 1975 137.17 1980.57 136.58Z" fill="#FCA21C" fill-opacity="1.000000" fill-rule="nonzero"/>
		<rect id="atom" width="40.674778" height="16.147881" transform="translate(1889.558594 59.221191) rotate(-54.290577)" fill="#FFFFFF" fill-opacity="0"/>
		<path id="Ellipse 7" d="M1919.86 30.9C1923.48 33.5 1921.1 43.01 1914.54 52.13C1907.99 61.25 1899.74 66.53 1896.11 63.93C1892.49 61.33 1894.87 51.82 1901.43 42.7C1907.98 33.58 1916.23 28.3 1919.86 30.9Z" fill="#FCA21C" fill-opacity="1.000000" fill-rule="nonzero"/>
		<rect id="atom" width="40.674759" height="16.147877" transform="translate(1878.407227 146.333557) rotate(96.214798)" fill="#FFFFFF" fill-opacity="0"/>
		<path id="Ellipse 7" d="M1865.98 185.89C1861.54 185.41 1858.94 175.96 1860.15 164.8C1861.37 153.63 1865.95 144.97 1870.38 145.46C1874.81 145.94 1877.42 155.38 1876.21 166.55C1874.99 177.71 1870.41 186.37 1865.98 185.89Z" fill="#FCA21C" fill-opacity="1.000000" fill-rule="nonzero"/>
		<rect id="atom" width="40.674763" height="18.566246" transform="translate(1832.222656 77.706451) rotate(17.999704)" fill="#FFFFFF" fill-opacity="0"/>
		<path id="Subtract (Stroke)" d="M1868.33 90.62C1870.18 93.22 1869.58 96.82 1866.99 98.67C1861.14 102.83 1853.28 104.06 1845.83 101.64C1838.38 99.22 1832.74 93.6 1830.46 86.8C1829.45 83.78 1831.08 80.51 1834.1 79.5C1837.13 78.49 1840.4 80.12 1841.41 83.15C1842.49 86.35 1845.3 89.35 1849.39 90.68C1853.48 92.01 1857.51 91.24 1860.27 89.27C1862.87 87.42 1866.47 88.03 1868.33 90.62Z" fill="#70C05B" fill-opacity="1.000000" fill-rule="evenodd"/>
		<rect id="atom" width="40.674755" height="18.566275" transform="translate(1946.684570 174.519409) rotate(-162.000244)" fill="#FFFFFF" fill-opacity="0"/>
		<path id="Subtract (Stroke)" d="M1910.58 161.59C1908.72 159 1909.32 155.4 1911.92 153.55C1917.76 149.39 1925.63 148.15 1933.08 150.57C1940.53 152.99 1946.17 158.62 1948.45 165.42C1949.46 168.44 1947.83 171.71 1944.81 172.72C1941.78 173.72 1938.51 172.09 1937.49 169.07C1936.42 165.86 1933.61 162.87 1929.52 161.54C1925.42 160.21 1921.39 160.98 1918.64 162.94C1916.04 164.79 1912.43 164.19 1910.58 161.59Z" fill="#70C05B" fill-opacity="1.000000" fill-rule="evenodd"/>
		<rect id="atom" width="40.674740" height="18.566246" transform="translate(1994.881836 52.838867) rotate(-135.627472)" fill="#FFFFFF" fill-opacity="0"/>
		<path id="Subtract (Stroke)" d="M1968.27 25.22C1967.76 22.07 1969.9 19.11 1973.05 18.61C1980.13 17.48 1987.73 19.86 1993.33 25.34C1998.93 30.82 2001.48 38.36 2000.5 45.47C2000.07 48.63 1997.16 50.83 1994 50.39C1990.84 49.95 1988.63 47.03 1989.07 43.87C1989.53 40.52 1988.34 36.59 1985.26 33.58C1982.19 30.57 1978.24 29.47 1974.89 30.01C1971.75 30.51 1968.78 28.37 1968.27 25.22Z" fill="#70C05B" fill-opacity="1.000000" fill-rule="evenodd"/>
		<rect id="atom" width="40.674770" height="18.566246" transform="translate(1840.963867 219.219391) rotate(8.575407)" fill="#FFFFFF" fill-opacity="0"/>
		<path id="Subtract (Stroke)" d="M1878.7 226.05C1880.95 228.3 1880.95 231.95 1878.69 234.2C1873.61 239.27 1866.05 241.77 1858.3 240.61C1850.56 239.44 1844.08 234.81 1840.71 228.48C1839.22 225.66 1840.29 222.17 1843.11 220.68C1845.93 219.19 1849.43 220.27 1850.92 223.08C1852.51 226.07 1855.77 228.56 1860.02 229.2C1864.28 229.84 1868.13 228.43 1870.53 226.04C1872.79 223.79 1876.44 223.79 1878.7 226.05Z" fill="#70C05B" fill-opacity="1.000000" fill-rule="evenodd"/>
		<rect id="atom" width="38.353981" height="18.199821" transform="translate(1842.001953 25.900360) rotate(-33.850700)" fill="#FFFFFF" fill-opacity="0"/>
		<path id="Rectangle 6255" d="M1844.72 29.95C1843.22 27.71 1843.82 24.68 1846.06 23.17L1869.8 7.25C1872.04 5.75 1875.07 6.35 1876.58 8.59L1881.27 15.59C1882.77 17.83 1882.18 20.86 1879.93 22.37L1856.2 38.29C1853.96 39.79 1850.92 39.19 1849.42 36.95L1844.72 29.95Z" fill="#1CB9FC" fill-opacity="1.000000" fill-rule="nonzero"/>
		<rect id="atom" width="38.353954" height="18.199797" transform="translate(1897.315430 198.717346) rotate(-12.315752)" fill="#FFFFFF" fill-opacity="0"/>
		<path id="Rectangle 6255" d="M1898.36 203.49C1897.78 200.85 1899.45 198.25 1902.09 197.67L1930.01 191.57C1932.65 191 1935.25 192.67 1935.83 195.31L1937.63 203.54C1938.2 206.18 1936.53 208.78 1933.9 209.36L1905.97 215.45C1903.33 216.03 1900.73 214.36 1900.16 211.72L1898.36 203.49Z" fill="#1CB9FC" fill-opacity="1.000000" fill-rule="nonzero"/>
		<rect id="atom" width="38.353992" height="18.199825" transform="translate(1922.849609 128.393707) rotate(-131.732651)" fill="#FFFFFF" fill-opacity="0"/>
		<path id="Rectangle 6255" d="M1926.5 125.14C1924.48 126.93 1921.39 126.76 1919.6 124.74L1900.57 103.41C1898.78 101.4 1898.95 98.31 1900.96 96.51L1907.25 90.9C1909.27 89.11 1912.36 89.28 1914.15 91.3L1933.18 112.63C1934.98 114.64 1934.8 117.73 1932.79 119.53L1926.5 125.14Z" fill="#1CB9FC" fill-opacity="1.000000" fill-rule="nonzero"/>
		<rect id="atom" width="38.353916" height="18.199818" transform="translate(1798.474609 198.731323) rotate(80.259499)" fill="#FFFFFF" fill-opacity="0"/>
		<path id="Rectangle 6255" d="M1793.66 199.55C1796.32 199.1 1798.84 200.88 1799.3 203.54L1804.14 231.71C1804.59 234.37 1802.81 236.9 1800.15 237.35L1791.84 238.78C1789.18 239.24 1786.66 237.45 1786.2 234.79L1781.36 206.62C1780.91 203.96 1782.69 201.44 1785.35 200.98L1793.66 199.55Z" fill="#1CB9FC" fill-opacity="1.000000" fill-rule="nonzero"/>
	</g>
</svg>
