<svg width="20" height="20" fill="none" xmlns="http://www.w3.org/2000/svg"><path fill-rule="evenodd" clip-rule="evenodd" d="M13.75 0h-7.5A6.25 6.25 0 000 6.25v7.5A6.25 6.25 0 006.25 20h7.5A6.25 6.25 0 0020 13.75v-7.5A6.25 6.25 0 0013.75 0zm4.375 13.75a4.38 4.38 0 01-4.375 4.375h-7.5a4.38 4.38 0 01-4.375-4.375v-7.5A4.38 4.38 0 016.25 1.875h7.5a4.38 4.38 0 014.375 4.375v7.5zM10 5.2a4.8 4.8 0 100 9.6 4.8 4.8 0 000-9.6zm0 7.8c-1.653 0-3-1.346-3-3 0-1.655 1.347-3 3-3 1.654 0 3 1.345 3 3 0 1.654-1.346 3-3 3zm6-8.4a.6.6 0 11-1.2 0 .6.6 0 011.2 0z" fill="url(#paint0_linear_13311_6436)"/><defs><linearGradient id="paint0_linear_13311_6436" x1="2.929" y1="17.071" x2="17.071" y2="2.929" gradientUnits="userSpaceOnUse"><stop stop-color="#FFC107"/><stop offset=".507" stop-color="#F44336"/><stop offset=".99" stop-color="#9C27B0"/></linearGradient></defs></svg>