<svg width="39.000000" height="32.000000" viewBox="0 0 39 32" fill="none" xmlns="http://www.w3.org/2000/svg" xmlns:xlink="http://www.w3.org/1999/xlink">
	<desc>
			Created with Pixso.
	</desc>
	<defs/>
	<path id="Vector" d="M4.27 16.92L34.77 16.92C35.4 16.92 35.92 17.47 35.87 18.11C35.2 25.79 28.13 31.82 19.52 31.82C10.9 31.82 3.83 25.79 3.16 18.11C3.11 17.47 3.63 16.92 4.27 16.92Z" fill="#FF6633" fill-opacity="1.000000" fill-rule="nonzero"/>
	<path id="Vector" d="M25.02 5.44C25.36 5.44 25.7 5.29 25.92 4.99C27.04 3.51 29.15 2.59 31.44 2.59C33.74 2.59 35.85 3.51 36.97 4.99C37.34 5.49 38.05 5.59 38.55 5.21C39.05 4.83 39.14 4.11 38.76 3.61C37.21 1.54 34.47 0.31 31.44 0.31C28.41 0.31 25.68 1.54 24.12 3.61C23.74 4.11 23.84 4.83 24.34 5.21C24.54 5.37 24.78 5.44 25.02 5.44Z" fill="#414141" fill-opacity="1.000000" fill-rule="nonzero"/>
	<path id="Vector" d="M1.17 5.44C1.51 5.44 1.85 5.29 2.07 4.99C3.18 3.51 5.3 2.59 7.59 2.59C9.88 2.59 12 3.51 13.11 4.99C13.49 5.49 14.2 5.59 14.7 5.21C15.19 4.83 15.29 4.11 14.91 3.61C13.36 1.54 10.62 0.31 7.59 0.31C4.56 0.31 1.83 1.54 0.27 3.61C-0.11 4.11 -0.01 4.83 0.48 5.21C0.69 5.37 0.93 5.44 1.17 5.44Z" fill="#414141" fill-opacity="1.000000" fill-rule="nonzero"/>
</svg>
