<svg width="93" height="64" fill="none" xmlns="http://www.w3.org/2000/svg"><path d="M65.378 20.744H25.393c-.839 0-1.52.685-1.447 1.49.876 9.577 10.14 17.114 21.438 17.114 11.298 0 20.562-7.537 21.439-17.115.075-.804-.606-1.489-1.445-1.489z" fill="#F63"/><path d="M38.167 6.412c-.446 0-.89-.192-1.179-.562-1.46-1.849-4.236-3-7.24-3-3.006 0-5.781 1.149-7.242 3a1.518 1.518 0 01-2.074.27 1.389 1.389 0 01-.281-1.996C22.19 1.54 25.776 0 29.747 0c3.97 0 7.557 1.541 9.6 4.124a1.39 1.39 0 01-.282 1.997c-.27.198-.584.291-.898.291zm31.275 0c-.447 0-.89-.192-1.18-.562-1.46-1.849-4.235-3-7.24-3s-5.78 1.149-7.241 3a1.518 1.518 0 01-2.075.27 1.389 1.389 0 01-.281-1.996C53.465 1.54 57.05 0 61.022 0c3.97 0 7.557 1.541 9.599 4.124a1.39 1.39 0 01-.281 1.997 1.51 1.51 0 01-.898.291zM4.144 43.64l-.581 1.482c-.052.122-.238.172-.411.112-.395-.115-.804-.32-1.231-.622a4.403 4.403 0 01-1.009-.943 4.56 4.56 0 01-.784-1.632 4.439 4.439 0 01-.079-1.713c.09-.552.295-1.086.614-1.596.322-.51.736-.945 1.255-1.304a4.676 4.676 0 011.68-.737 4.675 4.675 0 011.769-.06 4.683 4.683 0 011.663.61c.536.312.993.723 1.369 1.225.24.323.444.732.6 1.219.163.487.244.942.241 1.37.003.171-.124.301-.265.306l-1.639.045c-.157 0-.287-.14-.287-.341a2.32 2.32 0 00-.105-.742 2.063 2.063 0 00-.303-.633 2.405 2.405 0 00-1.61-.966 2.423 2.423 0 00-1.828.42c-.552.382-.882.892-.985 1.535-.097.638.055 1.232.458 1.768.124.167.294.323.516.469.225.148.444.26.668.33.22.068.341.242.284.399zm6.544-1.697c.135-.143.308-.148.454-.018l4.209 3.723c.149.13.154.296.019.437l-.947.99c-.143.15-.297.155-.454.017l-2.84-2.512-.996 1.041 2.156 1.909c.162.143.178.315.032.466l-.781.817c-.135.143-.317.14-.476 0l-2.156-1.908-1.022 1.073 2.84 2.512c.2.177.216.406.046.58l-.888.93c-.132.138-.308.14-.454.01l-4.295-3.795c-.15-.13-.16-.292-.025-.435l5.578-5.837zm9.103 12.25c-.01.414-.132.802-.367 1.163-.447.69-1.026 1.086-1.737 1.19-.706.107-1.477-.086-2.307-.585l-2.924-1.755c-.135-.08-.16-.185-.078-.31l4.452-6.873c.08-.125.189-.148.322-.068l2.707 1.625c.793.476 1.288 1.028 1.488 1.658.2.63.086 1.279-.341 1.94-.344.53-.944.88-1.547.898.232.333.343.703.332 1.117zm-3.391.143c.478.289.97.182 1.263-.268.287-.443.16-.898-.322-1.185l-1.228-.736-.941 1.452 1.228.737zm1.382-4.762l-.795 1.227L18 51.41c.408.244.814.159 1.057-.219.244-.378.144-.763-.265-1.008l-1.011-.609zm6.143 1.606c.076-.18.233-.245.42-.172l5.304 2.049c.186.073.254.224.178.403l-.519 1.247c-.078.19-.222.248-.42.172l-3.58-1.382-.547 1.312 2.719 1.049c.202.078.28.234.202.424l-.43 1.031c-.075.18-.243.24-.446.162l-2.718-1.05-.563 1.352 3.581 1.382c.254.1.352.305.257.529l-.49 1.171c-.072.175-.235.237-.421.164l-5.413-2.09c-.186-.073-.257-.219-.18-.399l3.066-7.354zm10.917 3.14c.925.195 1.615.617 2.07 1.27.454.649.586 1.412.384 2.292-.198.87-.65 1.504-1.345 1.908-.695.398-1.5.502-2.429.307l-1.038-.218-.52 2.272c-.043.188-.186.279-.394.235l-1.52-.32c-.195-.042-.282-.18-.241-.368l1.766-7.74a.308.308 0 01.378-.242l.766.162.77.164 1.353.278zm-.979 3.877c.303.065.579.02.82-.125a.984.984 0 00.468-.656.945.945 0 00-.138-.784 1.023 1.023 0 00-.687-.45l-.95-.2-.46 2.017.947.198zm11.587-2.734c.19.01.308.146.297.325l-.454 7.92c-.01.193-.133.305-.333.292l-1.552-.084c-.214-.01-.328-.135-.317-.328l.136-2.358-.904-.047-1.436 2.338c-.127.197-.208.252-.384.242l-1.815-.097c-.195-.01-.292-.203-.187-.367l1.712-2.692c-.838-.541-1.293-1.45-1.23-2.52.051-.893.384-1.596 1.003-2.103.62-.513 1.407-.74 2.353-.69l2.713.143.398.026zm-2.118 3.939l.122-2.127-1.134-.06c-.316-.016-.581.068-.792.25a.997.997 0 00-.346.726c-.017.305.07.565.26.792.194.221.448.34.757.357l1.133.062zm11.72-4.78c.152-.018.238.05.257.2l1.001 8.04c.02.15-.051.234-.2.252l-1.707.198c-.151.019-.238-.05-.257-.2l-.397-3.195-3.3.38.397 3.195c.02.15-.051.234-.2.253l-1.701.195c-.157.018-.244-.05-.263-.2l-1-8.04c-.02-.151.051-.234.208-.253l1.701-.195c.152-.018.238.05.257.2l.365 2.935 3.3-.38-.365-2.935c-.019-.15.052-.234.2-.252l1.704-.198zm2.78 2.072a4.23 4.23 0 01.465-1.646 4.48 4.48 0 011.098-1.335 4.586 4.586 0 011.604-.88 4.67 4.67 0 011.828-.21 4.62 4.62 0 011.702.444c.52.248.987.6 1.393 1.055.41.447.714.96.914 1.544a4.25 4.25 0 01.149 2.311 4.222 4.222 0 01-1.063 2.034c-.541.585-1.217 1.002-2.026 1.26a4.837 4.837 0 01-3.54-.23 4.622 4.622 0 01-1.388-1.043 4.452 4.452 0 01-.907-1.542 4.292 4.292 0 01-.23-1.762zm3.516 2.447c.592.286 1.212.323 1.858.117.641-.203 1.11-.588 1.41-1.156a2.15 2.15 0 00.132-1.773 2.273 2.273 0 00-1.21-1.359 2.418 2.418 0 00-1.847-.127c-.64.203-1.114.593-1.412 1.163a2.172 2.172 0 00-.13 1.784 2.25 2.25 0 001.199 1.351zM72.579 47.67c.146-.08.327-.025.422.131l4.111 6.863c.09.145.04.335-.113.419l-1.364.755a.317.317 0 01-.427-.115L73.82 53.41a2.502 2.502 0 01-1.173 1.421c-.907.503-1.81.633-2.708.396-.9-.242-1.628-.823-2.18-1.744L66.512 51.4c-.09-.146-.049-.339.095-.417l1.352-.75c.168-.093.365-.046.457.11l1.244 2.078c.477.794 1.247.994 2.075.536.417-.232.67-.529.782-.893.11-.365.054-.74-.173-1.12l-1.25-2.088a.302.302 0 01.106-.421l1.379-.763zm13.491-.251c.209.05.309.237.152.372l-1.504 1.294a.416.416 0 01-.33.101l-3.903-.973-.933.802 2.158 2.324c.106.115.1.222-.013.318l-1.29 1.112c-.12.101-.23.096-.336-.018l-5.599-6.033c-.1-.109-.095-.216.022-.317l1.29-1.112c.113-.096.224-.091.327.018l2.056 2.216.73-.628-.343-3.697c-.022-.223.048-.315.208-.453l1.49-1.28c.168-.144.352-.034.37.197l.404 4.517 5.044 1.24zm6.705-8.623c.208.05.292.198.157.385l-.993 1.36c-.097.132-.284.187-.462.145l-1.185-.33-1.772 2.423.723.953c.11.133.119.325.01.471l-.99 1.354c-.13.177-.3.17-.43-.013l-4.865-7.113a.427.427 0 01-.006-.49l.739-1.01c.097-.132.292-.195.473-.15l8.601 2.015zm-5.399 2.478l1.055-1.445-2.729-.768 1.674 2.213z" fill="#414141"/></svg>