<svg width="12" height="20" fill="none" xmlns="http://www.w3.org/2000/svg"><path d="M5.792 3.025a2.14 2.14 0 012.137 2.137 2.14 2.14 0 01-2.137 2.136 2.14 2.14 0 01-2.137-2.136 2.14 2.14 0 012.137-2.137zm0 7.297a5.166 5.166 0 005.162-5.16A5.167 5.167 0 005.792 0 5.168 5.168 0 00.63 5.162a5.166 5.166 0 005.162 5.16zm2.088 4.21a9.663 9.663 0 002.997-1.24 1.512 1.512 0 00-1.61-2.561 6.555 6.555 0 01-6.95 0 1.51 1.51 0 00-2.085.475 1.512 1.512 0 00.474 2.085c.922.58 1.935 1 2.997 1.241L.817 17.418a1.512 1.512 0 002.14 2.139L5.79 16.72l2.837 2.836a1.509 1.509 0 002.137 0 1.507 1.507 0 000-2.138L7.88 14.532z" fill="#EE8208"/></svg>